<?xml version="1.0" encoding="UTF-8"?>
<svg width="180px" height="42px" viewBox="0 0 180 42" version="1.1" xmlns="http://www.w3.org/2000/svg" xmlns:xlink="http://www.w3.org/1999/xlink">
    <!-- Generator: Sketch 49 (51002) - http://www.bohemiancoding.com/sketch -->
    <title>Shape</title>
    <desc>Created with Sketch.</desc>
    <defs></defs>
    <g id="Page-1" stroke="none" stroke-width="1" fill="none" fill-rule="evenodd">
        <g id="logo" transform="translate(-267.000000, -206.000000)" fill="#FFFFFF">
            <g id="Group-3" transform="translate(266.000000, 206.000000)">
                <path d="M38.9671688,35.1488424 L38.9671688,33.4970894 C39.5610683,33.2718504 39.9037397,32.8204097 39.9229909,32.3169908 L39.9229909,23.1245424 C39.9037397,22.6230486 39.5610683,22.171608 38.9671688,21.9463689 L38.9671688,20.2936126 L46.3798436,20.2936533 C47.7081765,20.2936533 49.1953318,20.2772898 50.3465536,20.9000662 C51.6152077,21.5767459 52.0319962,22.8251862 52.0319962,24.055338 C52.0319962,25.7542565 51.2580979,26.9141413 49.3541542,27.3838706 L49.3541542,27.4175602 C51.5353152,27.6601253 52.2880372,29.185783 52.2880372,30.9183911 C52.2880372,32.1331418 51.9723175,33.4855387 50.8615232,34.2642498 C49.6515852,35.1305538 48.1057138,35.1488424 46.6185585,35.1488424 L38.9671688,35.1488424 Z M44.2410352,26.3298674 L45.808083,26.3298674 C46.8437976,26.3298674 47.499301,25.8707262 47.499301,24.8898775 C47.499301,23.9244298 46.7898942,23.3979095 45.808083,23.3979095 L44.2410352,23.3979095 L44.2410352,26.3298674 Z M44.2410352,32.1321793 L44.2410352,28.7016153 L45.9486167,28.7016153 C47.1248651,28.7016153 47.6735243,29.3859955 47.6735243,30.4294106 C47.6735243,31.5055527 46.9978072,32.1321793 45.9486167,32.1321793 L44.2419978,32.1321793 L44.2410352,32.1321793 Z M69.5640648,24.9062411 C70.8548578,24.1458186 72.1572015,23.9812209 72.7953788,24.0033597 C73.7675645,24.0370493 74.4798589,24.3171543 74.954401,24.7320177 C75.8081918,25.4414244 75.9073354,26.2384242 75.9073354,27.1769202 L75.9073354,32.1254414 C75.9073354,32.664475 76.1287243,33.2699252 76.7428376,33.5644686 L76.7428376,35.1488424 L72.0474697,35.1488424 C71.7692898,34.0390107 71.788541,32.8772008 71.788541,31.7510055 L71.788541,27.9488933 C71.788541,27.8786265 71.8482198,27.3752076 71.6499324,26.9767077 C71.3322876,26.5628069 70.5362504,26.2499749 69.7633147,26.5628069 L69.7633147,32.2496116 C69.7633147,32.784795 69.703636,33.3921704 70.337963,33.6876763 L70.337963,35.1488424 L64.7888044,35.1488424 L64.7888044,33.6876763 C65.4048428,33.3758069 65.6454828,32.872388 65.6454828,32.3179534 L65.6454828,27.4108223 C65.6454828,26.8226981 65.382704,26.4405618 64.7888044,26.0584254 L64.7888044,24.2295613 L69.5640648,24.2295613 L69.5640648,24.9062411 Z M161.522238,24.9062411 C162.812069,24.1458186 164.11345,23.9812209 164.751627,24.0033597 C165.72285,24.0370493 166.435145,24.3171543 166.910649,24.7320177 C167.76444,25.4414244 167.862621,26.2384242 167.862621,27.1769202 L167.862621,32.1254414 C167.862621,32.664475 168.084973,33.2699252 168.699086,33.5644686 L168.699086,35.1488424 L164.003718,35.1488424 C163.724576,34.0390107 163.745752,32.8772008 163.745752,31.7510055 L163.745752,27.9488933 C163.745752,27.8786265 163.806393,27.3752076 163.606181,26.9767077 C163.288536,26.5628069 162.493461,26.2499749 161.718601,26.5628069 L161.718601,32.2496116 C161.718601,32.784795 161.658922,33.3921704 162.294211,33.6876763 L162.294211,35.1488424 L156.745053,35.1488424 L156.745053,33.6876763 C157.358204,33.3758069 157.601731,32.872388 157.601731,32.3179534 L157.601731,27.4108223 C157.601731,26.8226981 157.338952,26.4405618 156.745053,26.0584254 L156.745053,24.2295613 L161.522238,24.2295613 L161.522238,24.9062411 Z M94.2084895,27.855525 L95.7120083,26.7408805 C96.2433414,26.2307237 96.3675117,25.6146852 96.3675117,24.6617508 L96.3675117,24.2285988 L100.824165,24.2285988 L100.824165,25.6888024 C100.667267,25.7581067 100.231228,25.9159665 99.8943317,26.2778891 L97.3377722,28.5235417 L99.8943317,32.1966708 C100.211976,32.7674689 100.449729,33.3758069 101.203413,33.6876763 L101.203413,35.1488424 L97.2270778,35.1488424 L94.248917,30.3995712 L94.2084895,30.3995712 L94.2084895,32.2496116 C94.2084895,32.8367732 94.4298783,33.2882139 95.0651679,33.6876763 L95.0651679,35.1488424 L89.5150467,35.1488424 L89.5150467,33.6876763 C90.1108714,33.2882139 90.3717252,32.9060776 90.3717252,32.3169908 L90.3717252,23.1938467 C90.3717252,22.60476 90.1503364,22.1542819 89.5150467,21.7548195 L89.5150467,20.2936533 L94.2084895,20.2936533 L94.2084895,27.855525 Z M174.003754,27.855525 L175.508236,26.7408805 C176.038606,26.2307237 176.162776,25.6146852 176.162776,24.6617508 L176.162776,24.2285988 L180.619429,24.2285988 L180.619429,25.6888024 C180.46157,25.7581067 180.024567,25.9159665 179.687671,26.2778891 L177.133037,28.5235417 L179.689596,32.1966708 C180.007241,32.7674689 180.244031,33.3758069 180.998678,33.6876763 L180.998678,35.1488424 L177.02138,35.1488424 L174.044182,30.3995712 L174.003754,30.3995712 L174.003754,32.2496116 C174.003754,32.8367732 174.226106,33.2882139 174.860433,33.6876763 L174.860433,35.1488424 L169.311274,35.1488424 L169.311274,33.6876763 C169.906136,33.2882139 170.16699,32.9060776 170.16699,32.3169908 L170.16699,23.1938467 C170.16699,22.60476 169.946564,22.1542819 169.311274,21.7548195 L169.311274,20.2936533 L174.003754,20.2936533 L174.003754,27.855525 Z M117.412924,27.855525 L118.916443,26.7408805 C119.446814,26.2307237 119.570984,25.6146852 119.570984,24.6617508 L119.570984,24.2285988 L124.029562,24.2285988 L124.029562,25.6888024 C123.87074,25.7581067 123.433737,25.9159665 123.097804,26.2778891 L120.541245,28.5235417 L123.097804,32.1966708 C123.415449,32.7674689 123.652239,33.3758069 124.407848,33.6876763 L124.407848,35.1488424 L120.43055,35.1488424 L117.452389,30.3995712 L117.413887,30.3995712 L117.413887,32.2496116 C117.413887,32.8367732 117.635276,33.2882139 118.270565,33.6876763 L118.270565,35.1488424 L112.719482,35.1488424 L112.719482,33.6876763 C113.315306,33.2882139 113.57616,32.9060776 113.57616,32.3169908 L113.57616,23.1938467 C113.57616,22.60476 113.354771,22.1542819 112.719482,21.7548195 L112.719482,20.2936533 L117.412924,20.2936533 L117.412924,27.855525 Z M59.7093751,34.3171906 C58.7179382,35.0439234 57.4646851,35.3740815 56.1767797,35.3740815 C53.9946561,35.3740815 52.9079258,34.02746 52.9079258,32.2534618 C52.9079258,30.0703757 54.1332648,29.4283481 56.2354959,28.8209727 L59.3734416,27.9739199 L59.3734416,26.9767077 C59.3734416,26.4395992 58.8786858,25.9948965 58.2241449,25.9948965 C57.4704604,25.9948965 56.9477903,26.4395992 56.9477903,26.9767077 L56.9477903,28.0412991 L53.4228955,28.0412991 L53.4228955,25.6637758 C55.0303707,24.6579006 56.7726044,24.0033597 58.714088,24.0033597 C59.965416,24.0033597 61.006906,24.1766205 62.0589841,24.8696638 C63.3690284,25.7715825 63.387317,26.9151039 63.3690284,28.1808703 L63.3690284,32.2139969 C63.3690284,32.7857575 63.3083871,33.2882139 63.9436767,33.6876763 L64.2247442,35.1488424 L59.9914052,35.1488424 L59.7093751,34.3171906 Z M59.4398583,30.1974336 C58.6053187,30.4910144 56.869823,30.8567872 56.869823,31.8212724 C56.869823,32.3651188 57.1326018,32.9840449 57.9777296,32.9840449 C58.7285264,32.9840449 58.9046749,32.8954894 59.4388957,32.5701441 L59.4388957,30.1955085 L59.4398583,30.1974336 Z M130.810798,35.1488424 L130.810798,33.4970894 C131.40566,33.2718504 131.746406,32.8204097 131.76662,32.3169908 L131.76662,23.1245424 C131.747369,22.6230486 131.40566,22.171608 130.810798,21.9463689 L130.810798,20.2936126 L138.224435,20.2936533 C139.552768,20.2936533 141.039923,20.2772898 142.190182,20.9000662 C143.459799,21.5767459 143.874662,22.8251862 143.874662,24.055338 C143.874662,25.7542565 143.102689,26.9141413 141.198746,27.3838706 L141.198746,27.4175602 C143.378944,27.6601253 144.133591,29.185783 144.133591,30.9183911 C144.133591,32.1331418 143.815946,33.4855387 142.706115,34.2642498 C141.496177,35.1305538 139.94838,35.1488424 138.46315,35.1488424 L130.810798,35.1488424 Z M136.085627,26.3298674 L137.653637,26.3298674 C138.686464,26.3298674 139.341967,25.8707262 139.341967,24.8898775 C139.341967,23.9244298 138.634486,23.3979095 137.653637,23.3979095 L136.084664,23.3979095 L136.084664,26.3298674 L136.085627,26.3298674 Z M136.085627,32.1321793 L137.793208,32.1321793 C138.842399,32.1321793 139.517153,31.5065153 139.517153,30.4294106 C139.517153,29.3859955 138.968494,28.7016153 137.793208,28.7016153 L136.084664,28.7016153 L136.084664,32.1321793 L136.085627,32.1321793 Z M151.4914,34.3171906 C150.499963,35.0439234 149.24671,35.3740815 147.958805,35.3740815 C145.776681,35.3740815 144.688988,34.02746 144.688988,32.2534618 C144.688988,30.0703757 145.91529,29.4283481 148.016558,28.8209727 L151.154504,27.9739199 L151.154504,26.9767077 C151.154504,26.4395992 150.659748,25.9948965 150.005207,25.9948965 C149.25056,25.9948965 148.730778,26.4395992 148.730778,26.9767077 L148.730778,28.0412991 L145.203958,28.0412991 L145.203958,25.6637758 C146.811433,24.6579006 148.551742,24.0033597 150.496113,24.0033597 C151.746478,24.0033597 152.789894,24.1766205 153.841009,24.8696638 C155.149128,25.7715825 155.169342,26.9151039 155.149128,28.1808703 L155.149128,32.2139969 C155.149128,32.7857575 155.090412,33.2882139 155.724739,33.6876763 L156.006769,35.1488424 L151.772468,35.1488424 L151.4914,34.3171906 Z M151.219958,30.1974336 C150.386381,30.4910144 148.650885,30.8567872 148.650885,31.8212724 C148.650885,32.3651188 148.914627,32.9840449 149.757829,32.9840449 C150.510551,32.9840449 150.6867,32.8954894 151.219958,32.5701441 L151.219958,30.1955085 L151.219958,30.1974336 Z M89.1319478,25.6888024 C88.516872,26.0189605 88.276232,26.4858021 88.276232,27.0402367 L88.276232,34.6463861 C88.276232,35.8746127 88.3349481,37.5398416 87.2443676,38.4571613 C86.1749634,39.3754436 84.7908021,39.5333034 83.3633255,39.5333034 C81.2822707,39.5333034 79.8547942,38.8258218 78.0307429,37.9402666 L78.0307429,35.8765378 L81.8107162,35.8765378 C81.8107162,35.9968578 81.8309299,36.6773878 81.9493248,36.9199529 C82.088896,37.1625181 82.5884647,37.3348163 82.9657882,37.3348163 C83.9957275,37.3348163 84.156475,35.8919388 84.156475,35.2681999 L84.156475,34.5751567 C83.3248231,35.1295912 82.1543501,35.3731189 81.2610944,35.3731189 C78.1712767,35.3731189 77.4118168,33.3844699 77.4118168,30.9925082 L77.4118168,28.8517747 C77.4118168,26.477139 77.6755582,24.0033597 81.0435558,24.0033597 C82.1533875,24.0033597 83.3845018,24.2622884 84.276795,24.8523377 L84.276795,24.2285988 L89.1319478,24.2285988 L89.1319478,25.6888024 Z M84.156475,26.7341426 C83.9427867,26.6032344 83.2122036,26.5204542 82.9436493,26.5204542 C81.5864397,26.5204542 81.4035533,27.6774514 81.4035533,28.2723135 L81.4035533,30.7942208 C81.4035533,31.3534682 81.6624819,32.7270414 82.9609754,32.7270414 C83.193915,32.7270414 83.9427867,32.6596622 84.156475,32.5460801 L84.156475,26.7341426 Z M112.359484,30.9867328 C112.359484,32.2014836 112.319057,33.5692814 111.189974,34.4192219 C110.059928,35.2681999 108.394699,35.3721564 106.96626,35.3721564 C105.67643,35.3721564 103.852379,35.285526 102.762761,34.6463861 C101.235178,33.7608309 101.235178,32.4247975 101.235178,30.9867328 L101.235178,28.1452556 C101.235178,26.9670821 101.254429,25.6839896 102.425865,24.8860273 C103.554947,24.1063537 105.08253,24.0023972 106.489793,24.0023972 C107.760372,24.0023972 109.663354,24.0899901 110.753934,24.6444247 C112.261303,25.4404619 112.360447,26.7591691 112.360447,28.1452556 L112.360447,30.9867328 L112.359484,30.9867328 Z M105.448303,31.887689 C105.448303,32.4767758 105.900706,33.377732 106.781449,33.377732 C107.764223,33.377732 108.13192,32.4767758 108.13192,31.887689 L108.13192,27.6273983 C108.13192,27.0392741 107.8008,25.9977841 106.798775,25.9977841 C105.7929,25.9977841 105.449266,27.0200229 105.449266,27.6273983 L105.449266,31.887689 L105.448303,31.887689 Z M31.0539627,21.6845526 C30.6785642,20.2695893 30.1385681,19.2213615 29.263601,17.6206241 C28.9767581,17.1682209 28.6090602,16.6599892 28.2789021,16.1219181 C24.4796776,10.4919044 16.9813349,0.667054108 16.2979172,0.0346521615 C16.2979172,0.0346521615 16.2507518,0 16.2103243,0 C16.1689342,0 16.1227313,0.0346521615 16.1227313,0.0346521615 C15.4383511,0.667054108 7.93904584,10.492867 4.14078392,16.1228807 C3.81062583,16.6619143 3.44292789,17.1682209 3.15512244,17.6215867 C2.28015536,19.222324 1.74112174,20.2705519 1.36572332,21.6864777 C0.898881705,23.7299927 0.877705384,26.2711512 1.30026924,28.3599065 C1.68336814,30.1974336 3.42752693,32.0686503 5.18131133,33.4682126 L7.86492872,35.598358 C7.86492872,35.598358 15.364234,41.0031326 16.0630526,41.3467666 C16.0630526,41.3467666 16.1313944,41.3900818 16.2093617,41.3900818 C16.2863665,41.3900818 16.3537457,41.3467666 16.3537457,41.3467666 C17.0535269,41.0031326 24.5518696,35.598358 24.5518696,35.598358 L27.2364495,33.4682126 C28.9902339,32.0686503 30.7343927,30.1974336 31.1155665,28.3599065 C31.5390929,26.2711512 31.5188792,23.7299927 31.0530001,21.6864777 L31.0539627,21.6845526 Z M13.8597527,35.7860572 C13.808737,35.8659497 13.6864918,35.8399606 13.5998614,35.8322601 C13.1590089,35.5242409 12.0742038,34.7368668 12.0742038,34.7368668 C10.2058747,33.3546305 8.32021962,32.0753882 6.52985794,30.6565747 C3.78174903,27.6341362 4.05896632,24.6155479 4.90313147,21.5892592 C4.9339334,21.3909718 5.0253766,21.0954659 5.28045501,21.0425251 C6.05724096,22.1831587 7.70033095,24.5337303 7.70033095,24.5337303 C9.29818062,26.8323237 11.2406268,28.9027903 13.0762288,31.0598874 C14.3371824,32.2168846 13.8251005,34.1593307 13.8597527,35.7860572 Z M16.2122494,29.7931584 C16.173747,29.7921958 16.1150308,29.7652441 16.0582398,29.706528 C13.6807165,26.8891147 10.9845858,23.7097789 8.61572555,20.8827401 C8.18931145,20.167558 7.7523092,19.4793275 7.70610631,18.5581576 C7.67434183,17.8362376 7.62910151,17.1720711 8.22396362,16.2720775 C8.22396362,16.2720775 8.61861323,15.7003168 8.73412044,15.5299437 C8.73412044,15.5299437 13.5825354,8.71694373 16.1352446,5.48755479 C16.1352446,5.48755479 16.1689342,5.44231447 16.2103243,5.44231447 C16.2469016,5.44231447 16.2805912,5.48755479 16.2805912,5.48755479 C18.8313753,8.71694373 23.6807528,15.5299437 23.6807528,15.5299437 C23.79626,15.7003168 24.1909096,16.2711149 24.1909096,16.2711149 C24.7857717,17.1730337 24.7395688,17.8362376 24.7087669,18.5581576 C24.6606389,19.4793275 24.2255617,20.167558 23.7991476,20.8827401 C21.4302874,23.7088164 18.7341567,26.8891147 16.3566334,29.7055654 C16.2998424,29.7652441 16.2440139,29.7912333 16.2122494,29.7931584 Z M25.8715394,30.6565747 C24.0831028,32.0753882 22.1955226,33.3546305 20.3271936,34.7378293 C20.3271936,34.7378293 19.2423884,35.5232783 18.8024985,35.8322601 C18.7149055,35.8399606 18.5936229,35.8659497 18.5406821,35.7860572 C18.5753343,34.1593307 18.0651775,32.2168846 19.3251686,31.0598874 C21.1617331,28.9027903 23.1022542,26.8323237 24.7010664,24.5337303 C24.7010664,24.5337303 26.3431938,22.1831587 27.1209423,21.0425251 C27.3760207,21.0954659 27.467464,21.3909718 27.4973033,21.5882966 C28.3443561,24.6155479 28.6206109,27.6350988 25.8715394,30.6565747 Z" id="Shape"></path>
            </g>
        </g>
    </g>
</svg>